<mxfile host="app.diagrams.net" modified="2020-11-04T16:04:03.303Z" agent="5.0 (Windows NT 10.0; Win64; x64) AppleWebKit/537.36 (KHTML, like Gecko) Chrome/86.0.4240.183 Safari/537.36" etag="J58Ucx2t2lfUiayOmXTk" version="13.9.0" type="github">
  <diagram id="4KwEKblZXH0Z2QQqBV4C" name="Page-1">
    <mxGraphModel dx="683" dy="379" grid="1" gridSize="10" guides="1" tooltips="1" connect="1" arrows="1" fold="1" page="1" pageScale="1" pageWidth="850" pageHeight="1100" math="0" shadow="0">
      <root>
        <mxCell id="0" />
        <mxCell id="1" parent="0" />
        <mxCell id="eL0FIZYhFSmK5O0Gba9s-13" value="" style="edgeStyle=entityRelationEdgeStyle;fontSize=12;html=1;endArrow=ERzeroToMany;startArrow=ERmandOne;" edge="1" parent="1">
          <mxGeometry width="100" height="100" relative="1" as="geometry">
            <mxPoint x="200" y="90" as="sourcePoint" />
            <mxPoint x="430" y="90" as="targetPoint" />
          </mxGeometry>
        </mxCell>
        <mxCell id="eL0FIZYhFSmK5O0Gba9s-14" value="Household" style="swimlane;childLayout=stackLayout;horizontal=1;startSize=30;horizontalStack=0;rounded=1;fontSize=14;fontStyle=0;strokeWidth=2;resizeParent=0;resizeLast=1;shadow=0;dashed=0;align=center;" vertex="1" parent="1">
          <mxGeometry x="39" y="47" width="160" height="120" as="geometry" />
        </mxCell>
        <mxCell id="eL0FIZYhFSmK5O0Gba9s-15" value="has_many items&#xa;id" style="align=left;strokeColor=none;fillColor=none;spacingLeft=4;fontSize=12;verticalAlign=top;resizable=0;rotatable=0;part=1;" vertex="1" parent="eL0FIZYhFSmK5O0Gba9s-14">
          <mxGeometry y="30" width="160" height="90" as="geometry" />
        </mxCell>
        <mxCell id="eL0FIZYhFSmK5O0Gba9s-17" value="Item" style="swimlane;childLayout=stackLayout;horizontal=1;startSize=30;horizontalStack=0;rounded=1;fontSize=14;fontStyle=0;strokeWidth=2;resizeParent=0;resizeLast=1;shadow=0;dashed=0;align=center;" vertex="1" parent="1">
          <mxGeometry x="430" y="46" width="160" height="130" as="geometry" />
        </mxCell>
        <mxCell id="eL0FIZYhFSmK5O0Gba9s-18" value="belongs_to: :household&#xa;name&#xa;description&#xa;current_locatioin&#xa;proper_location&#xa;household_id&#xa;" style="align=left;strokeColor=none;fillColor=none;spacingLeft=4;fontSize=12;verticalAlign=top;resizable=0;rotatable=0;part=1;" vertex="1" parent="eL0FIZYhFSmK5O0Gba9s-17">
          <mxGeometry y="30" width="160" height="100" as="geometry" />
        </mxCell>
      </root>
    </mxGraphModel>
  </diagram>
</mxfile>
